# xmcd CD database file
#
# Track frame offsets:
#	150
#	20722
#	39879
#	54230
#	66258
#	87842
#	106090
#	133614
#	154779
#	169125
#	185568
#	205994
#	219666
#	248313
#	274500
#	296201
#	310889
#
# Disc length: 4449 seconds
#
# Revision: 0
# Processed by: cddbd v1.5PL3 Copyright (c) Steve Scherf et al.
# Submitted via: CDex 1.51
#
DISCID=ed115f11
DTITLE=Various Artist - New Age
DYEAR=1999
DGENRE=New Age
TTITLE0=Santorini
TTITLE1=Dolphins
TTITLE2=Theme For Naomi Uemura
TTITLE3=New Waltz
TTITLE4=Sun Gate
TTITLE5=Angel's Flight
TTITLE6=Escape Of The Circus Ponies
TTITLE7=Aerial Boundaries
TTITLE8=The 19 A
TTITLE9=Bricklayer's Beautiful Daughter
TTITLE10=There Is A Monk In My Garden
TTITLE11=If You Believe
TTITLE12=Welcoming
TTITLE13=The Fifth Wave
TTITLE14=Wishing Well
TTITLE15=Color/Dance
TTITLE16=Reflections Of Passion
EXTD=YEAR: 1999
EXTT0=
EXTT1=
EXTT2=
EXTT3=
EXTT4=
EXTT5=
EXTT6=
EXTT7=
EXTT8=
EXTT9=
EXTT10=
EXTT11=
EXTT12=
EXTT13=
EXTT14=
EXTT15=
EXTT16=
PLAYORDER=
